<svg width="26" height="23" viewBox="0 0 26 23" fill="none" xmlns="http://www.w3.org/2000/svg">
<path d="M12.9014 21.9905C9.13341 22.1495 2.14008 20.3685 4.31042 11.9723C7.02335 1.47706 10.1883 1 12.9012 1" stroke="#2A2A2A" stroke-width="2" stroke-linecap="round"/>
<path d="M12.9014 21.9905C16.6693 22.1495 23.6627 20.3685 21.4923 11.9723C18.7794 1.47706 15.6145 1 12.9015 1" stroke="#2A2A2A" stroke-width="2" stroke-linecap="round"/>
<path d="M8.90104 2.28721C7.57073 1.67153 4.31146 1.64075 1.9169 6.44299C-0.477664 11.2452 2.40477 12.1539 3.90137 12" stroke="#2A2A2A" stroke-width="2"/>
<path d="M16.9017 2.28721C18.232 1.67153 21.4913 1.64075 23.8858 6.44299C26.2804 11.2452 23.398 12.1539 21.9014 12" stroke="#2A2A2A" stroke-width="2"/>
<path d="M13.6825 16.0239C13.2822 16.5243 12.5211 16.5243 12.1207 16.0239L10.2012 13.6247C9.67739 12.97 10.1436 12 10.9821 12L14.8208 12C15.6593 12 16.1255 12.9699 15.6017 13.6247L13.6825 16.0239Z" fill="#FF7920"/>
</svg>
