<svg width="20" height="20" viewBox="0 0 20 20" fill="none" xmlns="http://www.w3.org/2000/svg">
<path d="M15.4725 1H4.52747C4.23616 1 4 1.23616 4 1.52747V7C4 10.3137 6.68629 13 10 13C13.3137 13 16 10.3139 16 7.0002V1.52518C16 1.23387 15.7638 1 15.4725 1Z" fill="#FF7920" stroke="#2A2A2A" stroke-width="1.4"/>
<path d="M3.50815 3H3.22222C1.99492 3 1 3.99492 1 5.22222V6.16678C1 7.02333 1.49229 7.80363 2.26536 8.17244L4 9" stroke="#2A2A2A" stroke-width="1.4" stroke-linecap="round"/>
<path d="M16.4919 3H16.7778C18.0051 3 19 3.99492 19 5.22222V6.16678C19 7.02333 18.5077 7.80363 17.7346 8.17244L16 9" stroke="#2A2A2A" stroke-width="1.4" stroke-linecap="round"/>
<path d="M10 13V16" stroke="#2A2A2A" stroke-width="1.4" stroke-linecap="round"/>
<path d="M7.74074 16H10H12.2593C12.7401 16 13.2079 16.156 13.5926 16.4444L14.3333 17C15.1876 17.6407 14.7345 19 13.6667 19H6.33333C5.26554 19 4.81243 17.6407 5.66667 17L6.40741 16.4444C6.79207 16.156 7.25992 16 7.74074 16Z" fill="#FF7920" stroke="#2A2A2A" stroke-width="1.4" stroke-linecap="round"/>
<path d="M9.8425 5.20125C9.92257 5.09893 10.0774 5.09893 10.1575 5.20125L10.7183 5.91782C10.7413 5.94724 10.7721 5.96963 10.8072 5.98244L11.662 6.29436C11.7841 6.3389 11.832 6.48617 11.7594 6.59395L11.2512 7.34874C11.2303 7.37973 11.2185 7.41595 11.2172 7.45329L11.1847 8.36265C11.1801 8.49249 11.0548 8.58351 10.9299 8.5478L10.055 8.29771C10.019 8.28744 9.98096 8.28744 9.94503 8.29771L9.07014 8.5478C8.94522 8.58351 8.81994 8.49249 8.8153 8.36265L8.78279 7.45329C8.78145 7.41595 8.76968 7.37973 8.74882 7.34874L8.24061 6.59395C8.16805 6.48617 8.2159 6.3389 8.33795 6.29436L9.19275 5.98244C9.22785 5.96963 9.25867 5.94724 9.28169 5.91782L9.8425 5.20125Z" fill="#2A2A2A"/>
</svg>
