<svg width="414" height="855" viewBox="0 0 414 855" fill="none" xmlns="http://www.w3.org/2000/svg">
<path fill-rule="evenodd" clip-rule="evenodd" d="M160.682 0.804932L157.505 14.9845C152.264 17.0747 152.189 20.7006 153.136 22.7C154.083 24.6995 156.33 26.3594 160.135 24.6412C161.966 28.0839 165.081 27.6727 166.364 26.8561C170.437 24.2622 168.285 19.4879 166.7 17.4249L170.668 0.804932H413.054V74.8194L403.668 84.8683C398.155 83.8019 396.303 86.8621 396.126 89.0877C395.95 91.3133 397.052 93.9562 401.154 94.559C401.022 98.5002 403.889 99.8448 405.389 99.8448C410.152 99.8448 410.667 94.5899 410.328 91.9625L413.054 89.128V249.53L403.668 259.579C398.155 258.513 396.303 261.573 396.126 263.799C395.95 266.024 397.052 268.667 401.154 269.27C401.022 273.211 403.889 274.556 405.389 274.556C410.152 274.556 410.667 269.301 410.328 266.673L413.054 263.839V424.241L403.668 434.29C398.155 433.224 396.303 436.284 396.126 438.509C395.95 440.735 397.052 443.378 401.154 443.981C401.022 447.922 403.889 449.267 405.389 449.267C410.152 449.267 410.667 444.012 410.328 441.384L413.054 438.55V598.952L403.668 609.001C398.155 607.935 396.303 610.995 396.126 613.22C395.95 615.446 397.052 618.089 401.154 618.692C401.022 622.633 403.889 623.977 405.389 623.977C410.152 623.977 410.667 618.723 410.328 616.095L413.054 613.261V773.663L403.668 783.712C398.155 782.645 396.303 785.706 396.126 787.931C395.95 790.157 397.052 792.8 401.154 793.403C401.022 797.344 403.889 798.688 405.389 798.688C410.152 798.688 410.667 793.433 410.328 790.806L413.054 787.971V854.329H357.674C358.865 853.809 359.993 852.638 360.769 850.467C364.4 851.463 366.275 848.818 366.603 847.28C367.643 842.396 362.875 840.72 360.361 840.493L351.196 825.136L351.572 823.372C351.745 822.558 352.47 817.458 348.637 816.556C344.804 815.655 342.871 819 342.816 820.744C341.61 820.46 337.7 819.921 336.843 823.946C335.795 828.866 340.539 830.513 343.042 830.722L352.317 845.773C350.219 850.955 352.355 853.53 354.32 854.329H0V0.804932H160.682ZM343.042 131.879L352.317 146.929C350.123 152.349 352.56 154.917 354.589 155.584C356.617 156.251 359.313 155.698 360.769 151.624C364.4 152.62 366.275 149.974 366.603 148.436C367.643 143.552 362.875 141.877 360.361 141.65L351.196 126.293L351.572 124.529C351.745 123.715 352.47 118.614 348.637 117.713C344.804 116.812 342.871 120.156 342.816 121.9C341.61 121.617 337.7 121.077 336.843 125.102C335.795 130.022 340.539 131.67 343.042 131.879ZM352.317 321.64L343.042 306.589C340.539 306.381 335.795 304.733 336.843 299.813C337.7 295.788 341.61 296.327 342.816 296.611C342.871 294.867 344.804 291.522 348.637 292.424C352.47 293.325 351.745 298.426 351.572 299.24L351.196 301.004L360.361 316.361C362.875 316.588 367.643 318.263 366.603 323.147C366.275 324.685 364.4 327.331 360.769 326.334C359.313 330.409 356.617 330.962 354.589 330.295C352.56 329.628 350.123 327.06 352.317 321.64ZM343.042 481.3L352.317 496.351C350.123 501.771 352.56 504.339 354.589 505.006C356.617 505.673 359.313 505.119 360.769 501.045C364.4 502.042 366.275 499.396 366.603 497.858C367.643 492.974 362.875 491.299 360.361 491.072L351.196 475.714L351.572 473.951C351.745 473.137 352.47 468.036 348.637 467.135C344.804 466.233 342.871 469.578 342.816 471.322C341.61 471.038 337.7 470.499 336.843 474.524C335.795 479.444 340.539 481.092 343.042 481.3ZM352.317 671.062L343.042 656.011C340.539 655.803 335.795 654.155 336.843 649.235C337.7 645.21 341.61 645.749 342.816 646.033C342.871 644.289 344.804 640.944 348.637 641.845C352.47 642.747 351.745 647.848 351.572 648.662L351.196 650.425L360.361 665.782C362.875 666.01 367.643 667.685 366.603 672.569C366.275 674.107 364.4 676.753 360.769 675.756C359.313 679.83 356.617 680.384 354.589 679.717C352.56 679.05 350.123 676.482 352.317 671.062ZM23.4467 35.9048L35.3996 23.1075C35.0467 20.4955 35.5407 15.2715 40.3395 15.2715C44.265 15.2715 44.6179 19.3981 44.6179 20.6964C46.2498 20.3719 49.7783 21.6238 49.7783 25.7504C49.7783 29.8771 44.8825 30.248 44.0886 30.248H42.3684L30.1068 42.999C30.4449 45.6264 29.9303 50.8813 25.1668 50.8813C23.6672 50.8813 20.8003 49.5367 20.9326 45.5955C16.8307 44.9927 15.728 42.3498 15.9044 40.1242C16.0809 37.8986 17.9333 34.8384 23.4467 35.9048ZM35.3996 197.818L23.4467 210.616C17.9333 209.549 16.0809 212.609 15.9044 214.835C15.728 217.061 16.8307 219.704 20.9326 220.306C20.8003 224.248 23.6672 225.592 25.1668 225.592C29.9303 225.592 30.4449 220.337 30.1068 217.71L42.3684 204.959H44.0886C44.8825 204.959 49.7783 204.588 49.7783 200.461C49.7783 196.335 46.2498 195.083 44.6179 195.407C44.6179 194.109 44.265 189.982 40.3395 189.982C35.5407 189.982 35.0467 195.206 35.3996 197.818ZM23.4467 385.327L35.3996 372.529C35.0467 369.917 35.5407 364.693 40.3395 364.693C44.265 364.693 44.6179 368.82 44.6179 370.118C46.2498 369.794 49.7783 371.046 49.7783 375.172C49.7783 379.299 44.8825 379.67 44.0886 379.67H42.3684L30.1068 392.421C30.4449 395.048 29.9303 400.303 25.1668 400.303C23.6672 400.303 20.8003 398.958 20.9326 395.017C16.8307 394.414 15.728 391.772 15.9044 389.546C16.0809 387.32 17.9333 384.26 23.4467 385.327ZM35.3996 547.24L23.4467 560.037C17.9333 558.971 16.0809 562.031 15.9044 564.257C15.728 566.482 16.8307 569.125 20.9326 569.728C20.8003 573.669 23.6672 575.014 25.1668 575.014C29.9303 575.014 30.4449 569.759 30.1068 567.132L42.3684 554.381H44.0886C44.8825 554.381 49.7783 554.01 49.7783 549.883C49.7783 545.756 46.2498 544.504 44.6179 544.829C44.6179 543.531 44.265 539.404 40.3395 539.404C35.5407 539.404 35.0467 544.628 35.3996 547.24ZM23.4467 734.748L35.3996 721.951C35.0467 719.339 35.5407 714.115 40.3395 714.115C44.265 714.115 44.6179 718.242 44.6179 719.54C46.2498 719.215 49.7783 720.467 49.7783 724.594C49.7783 728.721 44.8825 729.092 44.0886 729.092H42.3684L30.1068 741.842C30.4449 744.47 29.9303 749.725 25.1668 749.725C23.6672 749.725 20.8003 748.38 20.9326 744.439C16.8307 743.836 15.728 741.193 15.9044 738.968C16.0809 736.742 17.9333 733.682 23.4467 734.748ZM55.0794 131.05L38.1302 133.137C34.4736 128.672 31.2038 129.834 29.7375 131.451C28.2712 133.068 27.5518 135.853 30.3862 139.026C27.9299 142.008 29.3596 144.945 30.5274 145.933C34.2369 149.073 37.7753 145.32 39.0808 143.051L56.2427 141.204L57.5823 142.338C58.2005 142.861 62.2345 145.8 64.6985 142.586C67.1625 139.373 65.1622 136.072 63.6976 135.249C64.4728 134.238 66.662 130.792 63.6051 128.204C59.8681 125.041 56.3642 128.783 55.0794 131.05ZM38.1302 307.848L55.0794 305.761C56.3642 303.494 59.8681 299.752 63.6051 302.915C66.662 305.503 64.4728 308.949 63.6976 309.96C65.1622 310.783 67.1625 314.084 64.6985 317.297C62.2345 320.511 58.2005 317.572 57.5823 317.049L56.2427 315.915L39.0808 317.762C37.7753 320.031 34.2369 323.784 30.5274 320.644C29.3596 319.656 27.9299 316.719 30.3862 313.737C27.5518 310.564 28.2712 307.779 29.7375 306.162C31.2038 304.545 34.4736 303.383 38.1302 307.848ZM55.0794 480.472L38.1302 482.559C34.4736 478.094 31.2038 479.256 29.7375 480.873C28.2712 482.49 27.5518 485.275 30.3862 488.448C27.9299 491.43 29.3596 494.367 30.5274 495.355C34.2369 498.495 37.7753 494.742 39.0808 492.473L56.2427 490.626L57.5823 491.76C58.2005 492.283 62.2345 495.222 64.6985 492.008C67.1625 488.794 65.1622 485.494 63.6976 484.671C64.4728 483.66 66.662 480.214 63.6051 477.626C59.8681 474.463 56.3642 478.205 55.0794 480.472ZM38.1302 657.269L55.0794 655.183C56.3642 652.916 59.8681 649.174 63.6051 652.337C66.662 654.924 64.4728 658.371 63.6976 659.382C65.1622 660.205 67.1625 663.505 64.6985 666.719C62.2345 669.932 58.2005 666.994 57.5823 666.471L56.2427 665.337L39.0808 667.184C37.7753 669.453 34.2369 673.206 30.5274 670.066C29.3596 669.077 27.9299 666.141 30.3862 663.159C27.5518 659.985 28.2712 657.2 29.7375 655.584C31.2038 653.967 34.4736 652.805 38.1302 657.269ZM55.0794 829.894L38.1302 831.98C34.4736 827.516 31.2038 828.678 29.7375 830.294C28.2712 831.911 27.5518 834.696 30.3862 837.87C27.9299 840.851 29.3596 843.788 30.5274 844.777C34.2369 847.917 37.7753 844.164 39.0808 841.895L56.2427 840.048L57.5823 841.182C58.2005 841.705 62.2345 844.643 64.6985 841.43C67.1625 838.216 65.1622 834.915 63.6976 834.092C64.4728 833.081 66.662 829.635 63.6051 827.048C59.8681 823.885 56.3642 827.627 55.0794 829.894ZM161.415 172.242L157.505 189.695C152.264 191.786 152.189 195.412 153.136 197.411C154.083 199.41 156.33 201.07 160.135 199.352C161.966 202.795 165.081 202.384 166.364 201.567C170.437 198.973 168.285 194.199 166.7 192.136L170.897 174.554L172.368 173.617C173.047 173.185 177.051 170.202 175.016 166.673C172.98 163.143 169.345 163.994 168.11 165.16C167.469 164.05 165.132 160.713 161.775 162.851C157.671 165.464 159.825 170.2 161.415 172.242ZM157.505 364.406L161.415 346.953C159.825 344.911 157.671 340.175 161.775 337.562C165.132 335.424 167.469 338.761 168.11 339.871C169.345 338.705 172.98 337.854 175.016 341.384C177.051 344.913 173.047 347.896 172.368 348.328L170.897 349.265L166.7 366.847C168.285 368.91 170.437 373.684 166.364 376.278C165.081 377.095 161.966 377.506 160.135 374.063C156.33 375.781 154.083 374.121 153.136 372.122C152.189 370.122 152.264 366.497 157.505 364.406ZM161.415 521.664L157.505 539.117C152.264 541.207 152.189 544.833 153.136 546.833C154.083 548.832 156.33 550.492 160.135 548.774C161.966 552.217 165.081 551.805 166.364 550.989C170.437 548.395 168.285 543.621 166.7 541.558L170.897 523.976L172.368 523.039C173.047 522.607 177.051 519.624 175.016 516.094C172.98 512.565 169.345 513.416 168.11 514.582C167.469 513.472 165.132 510.135 161.775 512.272C157.671 514.886 159.825 519.622 161.415 521.664ZM157.505 713.828L161.415 696.375C159.825 694.333 157.671 689.596 161.775 686.983C165.132 684.846 167.469 688.183 168.11 689.293C169.345 688.127 172.98 687.276 175.016 690.805C177.051 694.335 173.047 697.318 172.368 697.75L170.897 698.687L166.7 716.269C168.285 718.331 170.437 723.106 166.364 725.7C165.081 726.516 161.966 726.927 160.135 723.485C156.33 725.203 154.083 723.543 153.136 721.544C152.189 719.544 152.264 715.918 157.505 713.828ZM317.309 28.8156L305.271 41.5242C299.765 40.417 297.892 43.4634 297.701 45.6877C297.509 47.9119 298.594 50.563 302.692 51.1961C302.533 55.1362 305.391 56.502 306.891 56.5131C311.654 56.5483 312.204 51.2973 311.883 48.6674L324.23 36.0075L325.95 36.0203C326.744 36.0261 331.643 35.6914 331.67 31.5649C331.698 27.4383 328.178 26.1603 326.544 26.4728C326.552 25.1746 326.227 21.0454 322.302 21.0164C317.503 20.9809 316.974 26.2011 317.309 28.8156ZM305.271 216.235L317.309 203.527C316.974 200.912 317.503 195.692 322.302 195.727C326.227 195.756 326.552 199.886 326.544 201.184C328.178 200.871 331.698 202.149 331.67 206.276C331.643 210.402 326.744 210.737 325.95 210.731L324.23 210.718L311.883 223.378C312.204 226.008 311.654 231.259 306.891 231.224C305.391 231.213 302.533 229.847 302.692 225.907C298.594 225.274 297.509 222.623 297.701 220.399C297.892 218.174 299.765 215.128 305.271 216.235ZM317.309 378.237L305.271 390.946C299.765 389.839 297.892 392.885 297.701 395.109C297.509 397.334 298.594 399.985 302.692 400.618C302.533 404.558 305.391 405.924 306.891 405.935C311.654 405.97 312.204 400.719 311.883 398.089L324.23 385.429L325.95 385.442C326.744 385.448 331.643 385.113 331.67 380.987C331.698 376.86 328.178 375.582 326.544 375.895C326.552 374.596 326.227 370.467 322.302 370.438C317.503 370.403 316.974 375.623 317.309 378.237ZM305.271 565.657L317.309 552.948C316.974 550.334 317.503 545.114 322.302 545.149C326.227 545.178 326.552 549.307 326.544 550.606C328.178 550.293 331.698 551.571 331.67 555.698C331.643 559.824 326.744 560.159 325.95 560.153L324.23 560.14L311.883 572.8C312.204 575.43 311.654 580.681 306.891 580.646C305.391 580.635 302.533 579.269 302.692 575.329C298.594 574.696 297.509 572.045 297.701 569.82C297.892 567.596 299.765 564.55 305.271 565.657ZM317.309 727.659L305.271 740.368C299.765 739.261 297.892 742.307 297.701 744.531C297.509 746.755 298.594 749.406 302.692 750.04C302.533 753.98 305.391 755.346 306.891 755.357C311.654 755.392 312.204 750.141 311.883 747.511L324.23 734.851L325.95 734.864C326.744 734.87 331.643 734.535 331.67 730.408C331.698 726.282 328.178 725.004 326.544 725.316C326.552 724.018 326.227 719.889 322.302 719.86C317.503 719.824 316.974 725.045 317.309 727.659ZM114.397 92.2565L98.424 85.946C96.2931 87.3414 91.5462 88.9794 89.6054 84.368C88.0179 80.5959 91.4672 78.5879 92.5973 78.0629C91.6548 76.6259 91.3175 72.7289 94.9095 71.06C98.5015 69.3911 100.804 73.9457 101.125 74.7086L101.821 76.3616L117.879 82.9875C120.029 81.6 124.811 79.9693 126.738 84.5467C127.344 85.9878 127.333 89.2865 123.849 90.7533C124.984 94.9388 123.129 97.0672 121.12 97.7977C119.112 98.5283 115.699 97.9858 114.397 92.2565ZM98.424 260.657L114.397 266.967C115.699 272.697 119.112 273.239 121.12 272.509C123.129 271.778 124.984 269.65 123.849 265.464C127.333 263.997 127.344 260.699 126.738 259.258C124.811 254.68 120.029 256.311 117.879 257.698L101.821 251.072L101.125 249.419C100.804 248.657 98.5015 244.102 94.9095 245.771C91.3175 247.44 91.6548 251.337 92.5973 252.774C91.4672 253.299 88.0179 255.307 89.6054 259.079C91.5462 263.69 96.2931 262.052 98.424 260.657ZM114.397 441.678L98.424 435.368C96.2931 436.763 91.5462 438.401 89.6054 433.79C88.0179 430.018 91.4672 428.01 92.5973 427.485C91.6548 426.048 91.3175 422.151 94.9095 420.482C98.5015 418.813 100.804 423.367 101.125 424.13L101.821 425.783L117.879 432.409C120.029 431.022 124.811 429.391 126.738 433.968C127.344 435.41 127.333 438.708 123.849 440.175C124.984 444.361 123.129 446.489 121.12 447.219C119.112 447.95 115.699 447.408 114.397 441.678ZM98.424 610.079L114.397 616.389C115.699 622.118 119.112 622.661 121.12 621.93C123.129 621.2 124.984 619.071 123.849 614.886C127.333 613.419 127.344 610.12 126.738 608.679C124.811 604.102 120.029 605.733 117.879 607.12L101.821 600.494L101.125 598.841C100.804 598.078 98.5015 593.524 94.9095 595.193C91.3175 596.862 91.6548 600.759 92.5973 602.195C91.4672 602.721 88.0179 604.729 89.6054 608.501C91.5462 613.112 96.2931 611.474 98.424 610.079ZM114.397 791.1L98.424 784.789C96.2931 786.185 91.5462 787.823 89.6054 783.212C88.0179 779.439 91.4672 777.431 92.5973 776.906C91.6548 775.469 91.3175 771.572 94.9095 769.904C98.5015 768.235 100.804 772.789 101.125 773.552L101.821 775.205L117.879 781.831C120.029 780.443 124.811 778.813 126.738 783.39C127.344 784.831 127.333 788.13 123.849 789.597C124.984 793.782 123.129 795.911 121.12 796.641C119.112 797.372 115.699 796.829 114.397 791.1ZM234.972 77.3408L244.28 92.3687C242.098 97.7942 244.541 100.356 246.571 101.018C248.601 101.68 251.295 101.12 252.742 97.0423C256.376 98.0298 258.245 95.3793 258.569 93.8409C259.598 88.9542 254.827 87.2906 252.312 87.0696L243.113 71.735L243.485 69.9703C243.656 69.1559 244.37 64.0532 240.535 63.1614C236.7 62.2695 234.775 65.6187 234.723 67.363C233.517 67.0824 229.606 66.5525 228.758 70.5795C227.72 75.5024 232.468 77.1383 234.972 77.3408ZM244.28 267.08L234.972 252.052C232.468 251.849 227.72 250.213 228.758 245.29C229.606 241.263 233.517 241.793 234.723 242.074C234.775 240.33 236.7 236.98 240.535 237.872C244.37 238.764 243.656 243.867 243.485 244.681L243.113 246.446L252.312 261.78C254.827 262.001 259.598 263.665 258.569 268.552C258.245 270.09 256.376 272.741 252.742 271.753C251.295 275.831 248.601 276.391 246.571 275.729C244.541 275.067 242.098 272.505 244.28 267.08ZM234.972 426.763L244.28 441.79C242.098 447.216 244.541 449.778 246.571 450.44C248.601 451.102 251.295 450.542 252.742 446.464C256.376 447.452 258.245 444.801 258.569 443.263C259.598 438.376 254.827 436.712 252.312 436.491L243.113 421.157L243.485 419.392C243.656 418.578 244.37 413.475 240.535 412.583C236.7 411.691 234.775 415.04 234.723 416.785C233.517 416.504 229.606 415.974 228.758 420.001C227.72 424.924 232.468 426.56 234.972 426.763ZM244.28 616.501L234.972 601.473C232.468 601.271 227.72 599.635 228.758 594.712C229.606 590.685 233.517 591.215 234.723 591.496C234.775 589.751 236.7 586.402 240.535 587.294C244.37 588.186 243.656 593.289 243.485 594.103L243.113 595.868L252.312 611.202C254.827 611.423 259.598 613.087 258.569 617.974C258.245 619.512 256.376 622.162 252.742 621.175C251.295 625.253 248.601 625.813 246.571 625.151C244.541 624.489 242.098 621.927 244.28 616.501ZM234.972 776.184L244.28 791.212C242.098 796.638 244.541 799.199 246.571 799.862C248.601 800.523 251.295 799.964 252.742 795.886C256.376 796.873 258.245 794.223 258.569 792.684C259.598 787.798 254.827 786.134 252.312 785.913L243.113 770.578L243.485 768.814C243.656 767.999 244.37 762.897 240.535 762.005C236.7 761.113 234.775 764.462 234.723 766.206C233.517 765.926 229.606 765.396 228.758 769.423C227.72 774.346 232.468 775.982 234.972 776.184Z" fill="#FEB483"/>
</svg>
