<svg width="25" height="25" viewBox="0 0 25 25" fill="none" xmlns="http://www.w3.org/2000/svg">
<path fill-rule="evenodd" clip-rule="evenodd" d="M10.2183 3.64516e-07H15.3271C16.5795 -9.23824e-06 17.5898 -1.68566e-05 18.4121 0.0560824C19.2576 0.113767 20.0052 0.235381 20.7131 0.528603C22.4147 1.23341 23.7666 2.58528 24.4714 4.28682C24.7646 4.99472 24.8862 5.74232 24.9439 6.58778C25 7.40999 25 8.42026 25 9.67267V9.77134C25 11.0237 25 12.034 24.9439 12.8562C24.8862 13.7017 24.7646 14.4493 24.4714 15.1572C23.7666 16.8587 22.4147 18.2106 20.7131 18.9154C20.0052 19.2086 19.2576 19.3302 18.4121 19.3879C17.5898 19.444 16.5796 19.444 15.3271 19.444H11.7063C11.068 19.444 10.9408 19.4504 10.8369 19.4713C10.595 19.52 10.3705 19.6323 10.1864 19.7966C10.1073 19.8671 10.0258 19.9651 9.64286 20.4757L9.61293 20.5156C8.77165 21.6373 8.10124 22.5312 7.55266 23.1774C7.037 23.7849 6.45411 24.3958 5.75845 24.6834C3.84426 25.4747 1.63944 24.7398 0.582863 22.9582C0.198879 22.3108 0.0991446 21.4723 0.0510996 20.677C-1.2221e-05 19.8308 -6.58935e-06 18.7135 3.64524e-07 17.3114V10.2181C-1.35432e-05 8.71287 -2.46387e-05 7.4988 0.0803032 6.51565C0.163011 5.50339 0.33775 4.61426 0.7569 3.79165C1.42269 2.485 2.48505 1.42265 3.79173 0.756883C4.61436 0.337743 5.50351 0.163007 6.5158 0.0803014C7.49897 -2.46381e-05 8.71307 -1.35429e-05 10.2183 3.64516e-07ZM6.742 2.84879C5.90149 2.91746 5.41859 3.04548 5.05282 3.23184C4.26881 3.63131 3.63139 4.26871 3.23192 5.0527C3.04555 5.41847 2.91753 5.90136 2.84886 6.74185C2.77886 7.59855 2.77778 8.69896 2.77778 10.2775V17.2615C2.77778 18.7247 2.7784 19.7575 2.82382 20.5095C2.8463 20.8815 2.87771 21.143 2.91464 21.3273C2.94593 21.4835 2.97322 21.542 2.97473 21.5458C3.32706 22.1349 4.05711 22.3782 4.69245 22.1184C4.69589 22.1163 4.75284 22.0858 4.87162 21.9796C5.01172 21.8544 5.19377 21.664 5.43497 21.3798C5.92253 20.8055 6.54269 19.9797 7.42063 18.8091C7.44077 18.7823 7.4607 18.7556 7.48048 18.7292C7.76983 18.3428 8.02408 18.0032 8.33687 17.7241C8.88921 17.2312 9.56289 16.8944 10.2886 16.7483C10.6996 16.6655 11.1238 16.6659 11.6066 16.6662C11.6395 16.6663 11.6728 16.6663 11.7063 16.6663H15.2778C16.5911 16.6663 17.5065 16.6655 18.223 16.6167C18.927 16.5686 19.337 16.4788 19.6501 16.3491C20.671 15.9262 21.4822 15.1151 21.9051 14.0942C22.0347 13.7812 22.1245 13.3712 22.1726 12.6671C22.2215 11.9506 22.2222 11.0353 22.2222 9.722C22.2222 8.40875 22.2215 7.49336 22.1726 6.77686C22.1245 6.07283 22.0347 5.66284 21.9051 5.34981C21.4822 4.32888 20.671 3.51776 19.6501 3.09488C19.337 2.96522 18.927 2.87539 18.223 2.82735C17.5065 2.77847 16.5911 2.77772 15.2778 2.77772H10.2778C8.69916 2.77772 7.59872 2.7788 6.742 2.84879Z" fill="#2A2A2A"/>
<path d="M8 7H17" stroke="#2A2A2A" stroke-width="2.5" stroke-linecap="round"/>
<path d="M8 12H17" stroke="#2A2A2A" stroke-width="2.5" stroke-linecap="round"/>
</svg>
