<svg width="20" height="19" viewBox="0 0 20 19" fill="none" xmlns="http://www.w3.org/2000/svg">
<path d="M3.5 17L3 8L7 4L10 1.5C11.5 3 15.1 6.5 15.5 6.5C15.9 6.5 16.3333 8.83333 16.5 10V17.5H8.5L3.5 17Z" fill="#FF7920"/>
<path d="M8 17.5H12.5V10.5H8V17.5Z" fill="white"/>
<path d="M11.2253 1.35525L11.2253 1.35518L11.2221 1.35238C10.4787 0.713388 9.35661 0.752495 8.66044 1.46234L0.929918 9.05729C0.910994 9.07589 0.900234 9.10123 0.900004 9.12776C0.899774 9.15429 0.910094 9.17982 0.928692 9.19874L1.75877 10.043C1.79748 10.0824 1.86079 10.0829 1.90017 10.0442L2.79463 9.1652L2.7952 16.9516H2.79515L2.79526 16.955L2.79822 17.0432L2.79814 17.0432L2.79844 17.0472C2.84788 17.7118 3.40251 18.2357 4.07934 18.2357H15.9207V18.2358L15.9247 18.2357L16.0129 18.2321L16.0129 18.2322L16.0162 18.2319C16.6809 18.1831 17.2048 17.6284 17.2048 16.9516L17.2042 9.16455L18.0998 10.0443C18.1392 10.0829 18.2025 10.0824 18.2412 10.043L19.0713 9.19874C19.0899 9.17982 19.1002 9.15429 19.1 9.12776C19.0998 9.10123 19.089 9.07588 19.0701 9.05729L11.3306 1.45398L11.3306 1.45396L11.3289 1.45235L11.2253 1.35525ZM8.13223 9.74982L8.13223 9.74974L8.12816 9.75004C7.4636 9.79948 6.93967 10.3541 6.93967 11.0309L6.93909 16.851L4.17933 16.8516L4.17875 7.80527L9.63762 2.44294L9.69058 2.39494C9.88884 2.23814 10.1666 2.25071 10.3444 2.42495C10.3444 2.42497 10.3444 2.42499 10.3444 2.42501L15.8201 7.80467L15.8207 16.8516L13.0597 16.851L13.0603 11.0309H13.0604L13.0603 11.0276L13.0573 10.9394L13.0574 10.9394L13.0571 10.9353C13.0077 10.2707 12.453 9.7468 11.7762 9.7468H8.2238V9.74675L8.22045 9.74686L8.13223 9.74982ZM8.32379 11.1309H11.6762L11.6756 16.851H8.32322L8.32379 11.1309Z" fill="#2A2A2A" stroke="#2A2A2A" stroke-width="0.2" stroke-linejoin="round"/>
</svg>
