<svg width="19" height="17" viewBox="0 0 19 17" fill="none" xmlns="http://www.w3.org/2000/svg">
<ellipse cx="6.3218" cy="3.13523" rx="1.93649" ry="2.71109" transform="rotate(-9.31149 6.3218 3.13523)" fill="#BEBEBE"/>
<ellipse cx="2.45873" cy="6.99677" rx="1.65228" ry="2.31319" transform="rotate(-24.3376 2.45873 6.99677)" fill="#BEBEBE"/>
<ellipse cx="1.93649" cy="2.71109" rx="1.93649" ry="2.71109" transform="matrix(-0.986823 -0.161802 -0.161802 0.986823 14.3071 0.773193)" fill="#BEBEBE"/>
<ellipse cx="1.65228" cy="2.31319" rx="1.65228" ry="2.31319" transform="matrix(-0.911133 -0.412112 -0.412112 0.911133 18.2793 5.57007)" fill="#BEBEBE"/>
<path d="M9.6118 16.9144C9.43213 16.968 9.13622 16.968 8.95656 16.9144C7.42415 16.4719 4 14.6263 4 11.4981C4 10.1172 5.31576 9 6.938 9C7.89972 9 8.75048 9.39326 9.28418 10.001C9.81788 9.39326 10.6739 9 11.6304 9C13.2526 9 14.5684 10.1172 14.5684 11.4981C14.5684 14.6263 11.1442 16.4719 9.6118 16.9144Z" fill="#BEBEBE"/>
</svg>
