<svg width="19" height="17" viewBox="0 0 19 17" fill="none" xmlns="http://www.w3.org/2000/svg">
<ellipse cx="6.3218" cy="2.98875" rx="1.93649" ry="2.71109" transform="rotate(-9.31149 6.3218 2.98875)" fill="#FF7920"/>
<ellipse cx="2.45873" cy="6.85028" rx="1.65228" ry="2.31319" transform="rotate(-24.3376 2.45873 6.85028)" fill="#FF7920"/>
<ellipse cx="1.93649" cy="2.71109" rx="1.93649" ry="2.71109" transform="matrix(-0.986823 -0.161802 -0.161802 0.986823 14.3071 0.626709)" fill="#FF7920"/>
<ellipse cx="1.65228" cy="2.31319" rx="1.65228" ry="2.31319" transform="matrix(-0.911133 -0.412112 -0.412112 0.911133 18.2793 5.42358)" fill="#FF7920"/>
<path d="M9.6118 16.2988C9.43213 16.3551 9.13622 16.3551 8.95656 16.2988C7.42415 15.8349 4 13.8996 4 10.6194C4 9.17149 5.31576 8 6.938 8C7.89972 8 8.75048 8.41236 9.28418 9.04965C9.81788 8.41236 10.6739 8 11.6304 8C13.2526 8 14.5684 9.17149 14.5684 10.6194C14.5684 13.8996 11.1442 15.8349 9.6118 16.2988Z" fill="#FF7920"/>
</svg>
