<svg width="21" height="28" viewBox="0 0 21 28" fill="none" xmlns="http://www.w3.org/2000/svg">
<path d="M2.18693 22.5699C2.27917 24.2896 3.61884 25.6814 5.33638 25.8073C8.84018 26.0642 12.1598 26.0642 15.6636 25.8073C17.3812 25.6814 18.7208 24.2896 18.8131 22.5699C19.0623 17.9231 19.0623 13.4573 18.8131 8.81048C18.7208 7.0908 17.3827 5.69349 15.6771 5.45523C13.999 5.22081 12.2685 5 10.5 5C8.73147 5 7.00102 5.22081 5.32287 5.45523C3.61728 5.69349 2.27917 7.0908 2.18693 8.81048C1.93769 13.4573 1.93769 17.9231 2.18693 22.5699Z" fill="white"/>
<path d="M2.18693 22.5699C2.27917 24.2896 3.61884 25.6814 5.33638 25.8073C8.84018 26.0642 12.1598 26.0642 15.6636 25.8073C17.3812 25.6814 18.7208 24.2896 18.8131 22.5699C19.0623 17.9231 19.0623 13.4573 18.8131 8.81048C18.7208 7.0908 17.3827 5.69349 15.6771 5.45523C13.999 5.22081 12.2685 5 10.5 5C8.73147 5 7.00102 5.22081 5.32287 5.45523C3.61728 5.69349 2.27917 7.0908 2.18693 8.81048C1.93769 13.4573 1.93769 17.9231 2.18693 22.5699Z" stroke="#2A2A2A" stroke-width="2.5"/>
<path d="M7 13H14" stroke="#2A2A2A" stroke-width="2.5" stroke-linecap="round"/>
<path d="M7 18H11" stroke="#2A2A2A" stroke-width="2.5" stroke-linecap="round"/>
<rect x="6" y="2" width="9" height="6" rx="3" fill="#FF7920" stroke="#2A2A2A" stroke-width="2.5" stroke-linejoin="round"/>
</svg>
